# xmcd CD database file
#
# Track frame offsets:
#	150
#	20925
#	39021
#	56275
#	72934
#	90075
#	99956
#	114859
#	129500
#	153234
#	174658
#	189303
#	204336
#	234150
#	245603
#
# Disc length: 3556 seconds
#
# Revision: 1
# Processed by: cddbd v1.5.2PL0 Copyright (c) Steve Scherf et al.
# Submitted via: CDex 1.51
#
DISCID=ac0de20f
DTITLE=Various Artist - Select-A1
DYEAR=1900
DGENRE=Blues
TTITLE0=Alan McPike - Rainy Days And Mondays
TTITLE1=Elton John - Island Girl SC
TTITLE2=Ultra Nate - Free
TTITLE3=Gala - Freed From Desire
TTITLE4=Frank Sinatra and Bing Crosby - Well Did you Evah
TTITLE5=Bob Rivers - Walking Round In Womens Underware
TTITLE6=Gary Newman - Cars
TTITLE7=Haircut 100 - Favourite Shirts (boy meets girl)
TTITLE8=Alan Jackson - Good Time ZM
TTITLE9=Thompson Twins - Hold Me Now ZM
TTITLE10=Run DMC - It's Tricky
TTITLE11=E.L.O. - Rock 'N' Roll Is King ZM
TTITLE12=Tears For Fears - Shout (long version)
TTITLE13=Fleur East - Uptown Funk
TTITLE14=Mark Ronson Ft Bruno Mars - Uptown Funk ZM
EXTD=
EXTT0=
EXTT1=
EXTT2=
EXTT3=
EXTT4=
EXTT5=
EXTT6=
EXTT7=
EXTT8=
EXTT9=
EXTT10=
EXTT11=
EXTT12=
EXTT13=
EXTT14=
PLAYORDER=
